Language: English
Genre:Animation | Comedy | Family  http://www.imdb.com/title/tt1535375/
Source:DVDR-KART3LDV
 
http://www.starshare.ro/bitbucket/The%20Penguins%20Of%20Madagascar%20I%20Was%20A%20Penguin%20Zombie%202010.DvDRip.XviD.Ac3.Feel-Free.avi_thumbs_%5B2010.09.27_00.24.13%5D.jpg

General
Complete name :The Penguins Of Madagascar I Was A Penguin Zombie 2010.DvDRip.XviD.Ac3.Feel-Free
Format : AVI
Format/Info : Audio Video Interleave
File size : 1.65 GiB
Duration : 1h 33mn
Overall bit rate : 2 512 Kbps
Video #0
Muxing mode : Packed bitstream
Codec ID : XVID
Codec ID/Hint : XviD
Duration : 1h 33mn
Bit rate : 2 054 Kbps
Width : 720 pixels
Height : 384 pixels
Display aspect ratio : 1.875
Frame rate : 23.976 fps
Resolution : 24 bits
Colorimetry : 4:2:0
Scan type : Progressive
Bits/(Pixel*Frame) : 0.310
Stream size : 1.35 GiB (82%)
Writing library : XviD 1.2.1 (UTC 2008-12-04)
Audio #1
ID : 1
Format : AC-3
Format/Info : Audio Coding 3
Codec ID : 2000
Duration : 1h 33mn
Bit rate mode : Constant
Bit rate : 448 Kbps
Channel(s) : 6 channels
Channel positions : Front: L C R, Surround: L R, LFE
Sampling rate : 48.0 KHz
Stream size : 301 MiB (18%)
Alignment : Split accross interleaves
Interleave, duration : 42 ms (1.00 video frame)
Interleave, preload duration : 500 ms